<svg xmlns="http://www.w3.org/2000/svg" width="24" height="24" viewBox="0 0 24 24"><defs><style>.a{fill:#ddd;}</style></defs><path class="a" d="M12,17a5,5,0,1,1,5-5A5,5,0,0,1,12,17Zm0-8a3,3,0,1,0,3,3A3.009,3.009,0,0,0,12,9Zm1-5V1a1,1,0,0,0-2,0V4a1,1,0,0,0,2,0Zm0,19V20a1,1,0,0,0-2,0v3a1,1,0,0,0,2,0ZM5,12a1,1,0,0,0-1-1H1a1,1,0,0,0,0,2H4A1,1,0,0,0,5,12Zm19,0a1,1,0,0,0-1-1H20a1,1,0,0,0,0,2h3A1,1,0,0,0,24,12ZM6.71,6.71a1,1,0,0,0,0-1.41l-2-2A1,1,0,0,0,3.3,4.71l2,2A.982.982,0,0,0,6.01,7a1.024,1.024,0,0,0,.71-.29Zm14,14a1,1,0,0,0,0-1.41l-2-2a1,1,0,0,0-1.41,1.41l2,2a.982.982,0,0,0,.71.29,1.024,1.024,0,0,0,.71-.29Zm-16,0,2-2A1,1,0,0,0,5.3,17.3l-2,2a1,1,0,0,0,0,1.41.982.982,0,0,0,.71.29,1.024,1.024,0,0,0,.71-.29Zm14-14,2-2A1,1,0,0,0,19.3,3.3l-2,2a1,1,0,0,0,0,1.41.982.982,0,0,0,.71.29,1.024,1.024,0,0,0,.71-.29Z"/></svg>